<?xml version="1.0" encoding="UTF-8" standalone="no"?>
<!-- Generator: Adobe Illustrator 18.1.0, SVG Export Plug-In . SVG Version: 6.00 Build 0)  -->

<svg
   xmlns:dc="http://purl.org/dc/elements/1.1/"
   xmlns:cc="http://creativecommons.org/ns#"
   xmlns:rdf="http://www.w3.org/1999/02/22-rdf-syntax-ns#"
   xmlns:svg="http://www.w3.org/2000/svg"
   xmlns="http://www.w3.org/2000/svg"
   xmlns:sodipodi="http://sodipodi.sourceforge.net/DTD/sodipodi-0.dtd"
   xmlns:inkscape="http://www.inkscape.org/namespaces/inkscape"
   version="1.1"
   x="0px"
   y="0px"
   viewBox="0 0 74.8 74.8"
   enable-background="new 0 0 74.8 74.8"
   xml:space="preserve"
   width="56px"
   id="svg3336"
   inkscape:version="0.91 r13725"
   sodipodi:docname="gear_blue.svg"><metadata
   id="metadata3344"><rdf:RDF><cc:Work
       rdf:about=""><dc:format>image/svg+xml</dc:format><dc:type
         rdf:resource="http://purl.org/dc/dcmitype/StillImage" /><dc:title></dc:title></cc:Work></rdf:RDF></metadata><defs
   id="defs3342" /><sodipodi:namedview
   pagecolor="#ffffff"
   bordercolor="#666666"
   borderopacity="1"
   objecttolerance="10"
   gridtolerance="10"
   guidetolerance="10"
   inkscape:pageopacity="0"
   inkscape:pageshadow="2"
   inkscape:window-width="1440"
   inkscape:window-height="838"
   id="namedview3340"
   showgrid="false"
   inkscape:zoom="8.863636"
   inkscape:cx="10.794871"
   inkscape:cy="37.456412"
   inkscape:window-x="1912"
   inkscape:window-y="-8"
   inkscape:window-maximized="1"
   inkscape:current-layer="svg3336" />
<path
   fill="#03b287"
   d="M71.8,28.6h-7.2c-0.2-0.7-0.5-1.3-0.7-2l-0.1-0.2c-0.3-0.7-0.6-1.4-1-2.1l5-5l0.1-0.1c1.2-1.2,1.2-3.1,0-4.3l-8.1-8.1l0,0  c-1.2-1.2-3.1-1.2-4.3,0L50.4,12c-0.7-0.4-1.4-0.7-2.1-1c-0.7-0.3-1.4-0.6-2.1-0.8V3c0-1.7-1.4-3-3-3H31.7c-1.7,0-3,1.4-3,3v7.2  c-0.7,0.2-1.4,0.5-2.1,0.8c-0.7,0.3-1.4,0.6-2.1,1L19.5,7l-0.1-0.1c-1.2-1.2-3.1-1.2-4.3,0L6.9,15c-1.2,1.2-1.2,3.1,0,4.3l5.1,5.1  c-0.3,0.6-0.6,1.2-0.9,1.9L11,26.5c-0.3,0.7-0.6,1.4-0.8,2.1H3c-1.7,0-3,1.4-3,3v11.5c0,1.7,1.4,3,3,3h7.2c0.2,0.7,0.5,1.3,0.7,2  l0.1,0.2c0.3,0.7,0.6,1.4,1,2.1l-5,5l-0.1,0.1c-1.2,1.2-1.2,3.1,0,4.3l8.1,8.1c1.2,1.2,3.1,1.2,4.3,0l5.1-5.1  c0.6,0.3,1.2,0.6,1.9,0.9l0.2,0.1c0.7,0.3,1.4,0.5,2.1,0.8v7.2c0,1.7,1.4,3,3,3h11.5c1.7,0,3-1.4,3-3v-7.2c0.7-0.2,1.4-0.5,2.1-0.8  c0.7-0.3,1.4-0.6,2-1l5,5.1l0.1,0c1.2,1.2,3.1,1.2,4.3,0l8.1-8.1l0.1-0.1c1.2-1.2,1.2-3.1,0-4.3l-5.1-5.1c0.3-0.7,0.7-1.4,1-2.1  c0.3-0.7,0.6-1.4,0.8-2.1h7.2v0c1.7,0,3-1.4,3-3l0-11.2l0-0.3C74.8,30,73.4,28.6,71.8,28.6L71.8,28.6z M68.7,40.1L68.7,40.1h-6.5  c-1.5,0-2.8,1.1-3,2.5c-0.3,1.1-0.6,2.3-1.1,3.3c-0.5,1.1-1.1,2.3-1.7,3.3c-0.8,1.2-0.6,2.8,0.4,3.8l0,0l4.6,4.6l-3.8,3.8L53,56.9  c-1.1-1.1-2.8-1.2-3.9-0.3c-1,0.6-2,1.1-3.1,1.6c-1.1,0.5-2.3,0.9-3.5,1.1c-1.4,0.3-2.4,1.6-2.4,3h0v6.5h-5.4v-6.5  c0-1.5-1.1-2.8-2.6-3c-1.1-0.3-2.2-0.7-3.3-1.1l-0.2-0.1c-1.1-0.5-2.1-1-3.1-1.6c-1.2-0.8-2.8-0.6-3.8,0.4v0l-4.6,4.6l-3.8-3.8  l4.6-4.6c1-1,1.2-2.6,0.4-3.7c-0.6-1-1.2-2.2-1.7-3.3l-0.1-0.2c-0.4-1.1-0.8-2.2-1.1-3.4c-0.3-1.4-1.6-2.4-3-2.4v0H6.1v-5.4h6.5  c1.5,0,2.8-1.1,3-2.5c0.3-1.1,0.6-2.3,1.1-3.3l0.1-0.1c0.5-1.1,1-2.2,1.6-3.2c0.8-1.2,0.5-2.8-0.4-3.7l0,0l-4.6-4.6l3.8-3.8l4.6,4.6  c1,1,2.6,1.2,3.8,0.4c1-0.6,2.1-1.2,3.3-1.7c1.1-0.5,2.3-0.9,3.5-1.1c1.4-0.3,2.4-1.6,2.4-3l0,0V6.1h5.4v6.5c0,1.5,1.1,2.8,2.6,3  c1.1,0.3,2.2,0.6,3.3,1.1c1.1,0.5,2.2,1.1,3.3,1.7c1.3,0.8,2.9,0.5,3.9-0.5l4.5-4.5l3.8,3.8l-4.6,4.6c-1.1,1.1-1.2,2.7-0.3,3.9  c0.6,1,1.2,2.1,1.6,3.2l0.1,0.2c0.4,1.1,0.8,2.2,1.1,3.4c0.3,1.4,1.6,2.4,3,2.4l0,0h6.5V40.1L68.7,40.1z M37.4,24.6L37.4,24.6  c-3.5,0-6.7,1.4-9.1,3.8c-2.3,2.3-3.8,5.5-3.8,9c0,3.5,1.4,6.7,3.8,9.1c2.3,2.3,5.5,3.7,9.1,3.7c3.5,0,6.7-1.4,9.1-3.7  c2.3-2.3,3.8-5.5,3.8-9.1c0-3.5-1.4-6.7-3.8-9C44.1,26,40.9,24.6,37.4,24.6L37.4,24.6z M43.9,43.9L43.9,43.9c-1.7,1.7-4,2.7-6.5,2.7  c-2.5,0-4.8-1-6.5-2.7c-1.7-1.7-2.7-3.9-2.7-6.5c0-2.5,1-4.8,2.7-6.5c1.7-1.7,4-2.7,6.5-2.7c2.5,0,4.8,1,6.5,2.7  c1.6,1.7,2.7,3.9,2.7,6.5C46.6,39.9,45.5,42.2,43.9,43.9L43.9,43.9z"
   id="path3338"
   style="fill:#0096d6;fill-opacity:1" />
</svg>